#!OML:ASF X:\für Bonn\!DataBase\2005_08_10_Bjorn_Final\c3d\bjorn.ASF
:FULLY-SPECIFIED
:DEGREES
199
root -17.7204 19.4381 -3.23113 1440.96 -38.3463 3.66667
lowerback -3.24795 2.65323 4.20995
upperback 7.15305 3.43677 -3.13169
thorax 9.90414 2.11898 -5.31173
lowerneck -2.44986 -6.78233 4.08562
upperneck 10.8536 -8.65767 -7.77071
head 3.42765 -4.46059 -3.61377
rclavicle 1.39646e-014 -1.70955e-014
rhumerus -2.75031 -20.1491 -80.0903
rradius 122.636
rwrist -15.6866
rhand -44.3743 24.6425
rfingers 7.12502
rthumb -17.1815 -4.61792
lclavicle 1.39646e-014 -1.70955e-014
lhumerus -31.5065 -3.0362 88.8158
lradius 25.482
lwrist -12.2966
lhand -23.2721 -6.4302
lfingers 7.12502
lthumb 3.18034 23.5258
rfemur -10.3693 -6.03545 12.9056
rtibia 24.7699
rfoot -8.58511 25.5949
rtoes 1.49078
lfemur -24.0608 4.58574 -21.8235
ltibia 28.2051
lfoot -5.66178 -18.2854
ltoes -1.97251
200
root -17.6809 19.4433 -3.25847 1441.12 -37.4788 3.71034
lowerback -3.34109 2.60182 4.2676
upperback 7.10254 3.35325 -3.01816
thorax 9.88708 2.07632 -5.22887
lowerneck -2.58828 -6.42132 4.00331
upperneck 11.0242 -8.12504 -8.21144
head 3.53722 -4.2222 -3.76023
rclavicle 3.29983e-014 -1.80894e-014
rhumerus -5.22496 -18.7693 -80.3461
rradius 122.582
rwrist -14.1403
rhand -44.2455 24.9612
rfingers 7.12502
rthumb -17.0575 -4.30998
lclavicle 3.29983e-014 -1.80894e-014
lhumerus -31.5223 -2.92055 88.7959
lradius 25.2627
lwrist -12.9142
lhand -22.746 -6.13694
lfingers 7.12502
lthumb 3.6884 23.8109
rfemur -10.5781 -6.52046 12.8296
rtibia 24.8131
rfoot -8.71414 25.1621
rtoes 1.08217
lfemur -23.9473 5.36761 -21.9797
ltibia 28.4175
lfoot -6.26158 -17.8384
ltoes -2.51607
201
root -17.6404 19.4476 -3.28426 1441.27 -36.573 3.75288
lowerback -3.45363 2.53706 4.30764
upperback 7.06771 3.25081 -2.88712
thorax 9.89419 2.02305 -5.11898
lowerneck -2.76446 -6.0602 3.89477
upperneck 11.5534 -7.53174 -8.97019
head 3.37279 -3.99996 -3.61215
rclavicle 1.15916e-014 -1.34677e-014
rhumerus -7.6773 -17.2659 -80.6946
rradius 122.333
rwrist -12.845
rhand -44.0489 25.4944
rfingers 7.12502
rthumb -16.8683 -3.79303
lclavicle 1.15916e-014 -1.34677e-014
lhumerus -31.515 -2.77867 88.79
lradius 25.0354
lwrist -13.5871
lhand -22.1773 -6.00471
lfingers 7.12502
lthumb 4.23758 23.9329
rfemur -10.767 -7.01454 12.7487
rtibia 24.8555
rfoot -8.85089 24.736
rtoes 0.668119
lfemur -23.7824 5.86732 -22.065
ltibia 28.6527
lfoot -6.83797 -17.1302
ltoes -3.00729
202
root -17.6011 19.4523 -3.30942 1441.46 -35.6664 3.74613
lowerback -3.56843 2.48049 4.37768
upperback 7.02385 3.15624 -2.75038
thorax 9.89591 1.97537 -5.01915
lowerneck -2.96848 -5.69992 3.77465
upperneck 11.8138 -6.98325 -9.43846
head 3.50578 -3.76482 -3.73858
rclavicle -8.72463e-014 2.36181e-014
rhumerus -10.1307 -15.8153 -81.0971
rradius 121.884
rwrist -11.556
rhand -43.4932 25.5484
rfingers 7.12502
rthumb -16.3333 -3.78378
lclavicle -8.72463e-014 2.36181e-014
lhumerus -31.5295 -2.59446 88.7388
lradius 24.8523
lwrist -14.4127
lhand -21.5718 -6.00001
lfingers 7.12502
lthumb 4.82229 23.9251
rfemur -10.9493 -7.46558 12.7126
rtibia 24.9012
rfoot -9.02196 24.2646
rtoes 0.164119
lfemur -23.5828 6.43078 -22.0904
ltibia 28.8975
lfoot -7.34424 -16.4833
ltoes -3.61703
203
root -17.5606 19.4556 -3.33365 1441.66 -34.7611 3.65998
lowerback -3.654 2.43353 4.53306
upperback 6.98895 3.06816 -2.61531
thorax 9.89782 1.93765 -4.96975
lowerneck -3.23795 -5.31902 3.67091
upperneck 12.1157 -6.40437 -9.88266
head 3.66716 -3.51668 -3.86204
rclavicle 9.24473e-014 -3.27498e-014
rhumerus -12.5075 -14.4161 -81.5761
rradius 121.222
rwrist -10.4221
rhand -42.6598 25.0522
rfingers 7.12502
rthumb -15.5307 -4.34411
lclavicle 9.24473e-014 -3.27498e-014
lhumerus -31.5067 -2.4732 88.6609
lradius 24.6361
lwrist -15.2172
lhand -21.0253 -6.11668
lfingers 7.12502
lthumb 5.34997 23.7958
rfemur -11.0982 -7.97787 12.7413
rtibia 24.9381
rfoot -9.13176 23.8577
rtoes -0.341011
lfemur -23.3302 6.86388 -21.9893
ltibia 29.1573
lfoot -7.82702 -15.7277
ltoes -4.07799
204
root -17.52 19.4569 -3.35726 1441.82 -33.8583 3.59997
lowerback -3.71643 2.37073 4.63847
upperback 6.95042 2.96357 -2.4842
thorax 9.87635 1.88754 -4.89947
lowerneck -3.38721 -4.92703 3.59398
upperneck 12.3204 -5.80818 -10.3673
head 3.78063 -3.25873 -3.99346
rclavicle 9.01985e-015 1.56046e-014
rhumerus -14.813 -12.9747 -82.0953
rradius 120.261
rwrist -9.4959
rhand -41.5672 24.3134
rfingers 7.12502
rthumb -14.4782 -5.16152
lclavicle 9.01985e-015 1.56046e-014
lhumerus -31.5131 -2.14227 88.4867
lradius 24.4204
lwrist -16.3013
lhand -20.5336 -6.34054
lfingers 7.12502
lthumb 5.82469 23.5594
rfemur -11.2113 -8.41185 12.744
rtibia 24.9792
rfoot -9.29179 23.3858
rtoes -0.765036
lfemur -23.0142 7.24479 -21.8699
ltibia 29.4161
lfoot -8.27562 -14.932
ltoes -4.48077
205
root -17.4795 19.4578 -3.37913 1441.96 -32.9541 3.53888
lowerback -3.77563 2.31593 4.75718
upperback 6.90939 2.8712 -2.38435
thorax 9.8551 1.84586 -4.86921
lowerneck -3.57134 -4.52771 3.58799
upperneck 12.5658 -5.20036 -10.8612
head 3.91357 -2.99546 -4.14044
rclavicle -1.4725e-013 4.1049e-014
rhumerus -17.0166 -11.563 -82.7001
rradius 119.016
rwrist -8.8119
rhand -40.2591 23.529
rfingers 7.12502
rthumb -13.2175 -6.032
lclavicle -1.4725e-013 4.1049e-014
lhumerus -31.5343 -1.95593 88.3056
lradius 24.2719
lwrist -17.257
lhand -20.13 -6.459
lfingers 7.12502
lthumb 6.2143 23.4299
rfemur -11.3088 -8.85817 12.7369
rtibia 25.02
rfoot -9.45505 22.9399
rtoes -1.24049
lfemur -22.6686 7.57024 -21.7173
ltibia 29.6743
lfoot -8.75388 -14.1028
ltoes -5.02289
206
root -17.4376 19.4575 -3.40007 1442.12 -32.0344 3.48059
lowerback -3.84302 2.26245 4.87774
upperback 6.85951 2.77963 -2.27894
thorax 9.82873 1.80408 -4.83381
lowerneck -3.71094 -4.12675 3.55329
upperneck 12.7775 -4.58807 -11.3359
head 4.0341 -2.73006 -4.27344
rclavicle -6.06293e-015 2.5842e-014
rhumerus -19.1185 -10.3043 -83.2569
rradius 117.506
rwrist -8.38569
rhand -38.645 23.0811
rfingers 7.12502
rthumb -11.6613 -6.57436
lclavicle -6.06293e-015 2.5842e-014
lhumerus -31.5633 -1.76822 88.1745
lradius 24.1299
lwrist -18.1129
lhand -19.8085 -6.53298
lfingers 7.12502
lthumb 6.52464 23.3465
rfemur -11.4198 -9.34312 12.7274
rtibia 25.079
rfoot -9.6019 22.5156
rtoes -1.81696
lfemur -22.3034 7.75441 -21.5259
ltibia 29.9131
lfoot -9.21902 -13.1803
ltoes -5.69526
